# xmcd
#
# Track frame offsets:
#	150
#	11707
#	25058
#	36606
#	47594
#	56325
#	68067
#	77259
#	89826
#	99492
#	109065
#	118046
#
# Disc length: 1760
#
# Revision: 3
# Processed by: cddbd v1.5.1PL0 Copyright (c) Steve Scherf et al.
# Submitted via: audiograbber 1.82.02
# Normalized: r1:TDELIM( - ),TSWAP
#
DISCID=9606de0c
DTITLE=Various Artist - Go West Country
DYEAR=2002
DGENRE=Country
TTITLE0=Kenny Rogers - Me and Bobby McGee
TTITLE1=Lynn Anderson - Rose Garden
TTITLE2=Johnny Paycheck - Take This Job and Shove It
TTITLE3=Dolly Parton - It Wasn't God Who Made Honky Tonk Angels
TTITLE4=Waylon Jennings - Love's Gonna Live Here
TTITLE5=Donna Fargo - The Happiest Girl In The Whole USA
TTITLE6=Frankie Laine - Rawhide
TTITLE7=Jack Greene - All In Time
TTITLE8=Barbara Mandrell - Release Me
TTITLE9=Ned Miller - From A Jack To A King
TTITLE10=Kitty Wells - I'll Reposess My Heart
TTITLE11=Freddy Fender - Wasted Days and Wasted Nights
EXTD=
EXTT0=
EXTT1=
EXTT2=
EXTT3=
EXTT4=
EXTT5=
EXTT6=
EXTT7=
EXTT8=
EXTT9=
EXTT10=
EXTT11=
PLAYORDER=
